<?xml version="1.0" encoding="utf-8"?>
<!-- Generator: Adobe Illustrator 27.6.1, SVG Export Plug-In . SVG Version: 6.00 Build 0)  -->
<svg version="1.1" id="Layer_1" xmlns="http://www.w3.org/2000/svg" xmlns:xlink="http://www.w3.org/1999/xlink" x="0px" y="0px"
	 viewBox="0 0 2537.7 675.5" style="enable-background:new 0 0 2537.7 675.5;" xml:space="preserve">
<style type="text/css">
	.st0{fill:#0F2339;}
</style>
<g>
	<g>
		<path class="st0" d="M765.6,94.1h35v258h228.2v31H765.6V94.1z"/>
		<path class="st0" d="M1389.3,264.2c0,26.2-4.6,47.5-13.7,63.8c-9.1,16.3-20.9,29.1-35.4,38.4c-14.4,9.3-30.5,15.6-48.1,18.9
			c-17.6,3.3-34.8,5-51.5,5c-16.7,0-33.9-1.7-51.5-5c-17.6-3.3-33.7-9.6-48.1-18.9c-14.4-9.3-26.2-22.1-35.4-38.4
			c-9.1-16.3-13.7-37.6-13.7-63.8V94.1h35v170.1c0,33.1,10.1,57.5,30.2,73.1c20.1,15.6,48,23.5,83.5,23.5c35.5,0,63.3-7.8,83.5-23.5
			c20.1-15.6,30.2-40,30.2-73.1V94.1h35V264.2z"/>
		<path class="st0" d="M1474,94.1h54.1L1635,337.4l106.9-243.3h54.1v289h-32.2v-258h-0.8l-112.9,258h-29.4l-113.7-258h-0.8v258H1474
			V94.1z"/>
		<path class="st0" d="M1860,240.4c0-24.1,4.2-45.6,12.7-64.6c8.5-18.9,20.2-35,35.2-48.1c15-13.1,32.8-23.2,53.5-30.2
			c20.7-7,43.3-10.5,68-10.5s47.3,3.5,68,10.5c20.7,7,38.5,17.1,53.5,30.2c15,13.1,26.7,29.2,35.2,48.1
			c8.5,18.9,12.7,40.5,12.7,64.6c0,25.7-4.9,48-14.7,66.8c-9.8,18.8-22.7,34.4-38.6,46.7c-15.9,12.3-34,21.5-54.3,27.4
			c-20.3,6-40.9,8.9-61.8,8.9c-20.9,0-41.5-3-61.8-8.9c-20.3-6-38.4-15.1-54.3-27.4c-15.9-12.3-28.8-27.9-38.6-46.7
			C1864.9,288.4,1860,266.1,1860,240.4z M1895.7,234c0,22,3.6,40.9,10.9,56.6c7.3,15.8,17,28.8,29.2,39
			c12.2,10.2,26.4,17.7,42.5,22.5c16.2,4.8,33.1,7.2,50.9,7.2c17.5,0,34.3-2.4,50.5-7.2c16.2-4.8,30.4-12.3,42.7-22.5
			c12.3-10.2,22.1-23.2,29.4-39c7.3-15.8,10.9-34.6,10.9-56.6c0-16.2-3-31.3-9.1-45.5c-6.1-14.2-14.8-26.6-26.2-37.4
			c-11.4-10.7-25.4-19.2-41.9-25.4c-16.6-6.2-35.3-9.3-56.2-9.3c-20.9,0-39.7,3.1-56.2,9.3c-16.6,6.2-30.5,14.7-41.9,25.4
			c-11.4,10.7-20.1,23.2-26.2,37.4C1898.8,202.7,1895.7,217.9,1895.7,234z"/>
		<path class="st0" d="M2265.4,300.4c4.2,5.6,9.3,11.8,15.3,18.7c6,6.9,13.9,13.3,23.9,19.3c9.9,6,22.3,10.9,37.2,14.9
			c14.8,4,33.1,6,54.9,6c11.1,0,22.9-0.9,35.2-2.8c12.3-1.9,23.7-5,34.2-9.3c10.5-4.4,19.1-10.3,25.8-17.7
			c6.8-7.4,10.1-16.7,10.1-27.8c0-10.9-3.6-19.5-10.7-25.8c-7.2-6.4-16.7-11.3-28.6-14.7c-11.9-3.4-25.4-6-40.5-7.6
			c-15.1-1.6-30.5-3.2-46.1-4.8c-15.6-1.6-31-3.6-46.1-6.2c-15.1-2.5-28.6-6.4-40.5-11.7c-11.9-5.3-21.5-12.5-28.6-21.7
			c-7.2-9.1-10.7-21-10.7-35.6c0-15.4,3.4-28.6,10.1-39.6c6.8-11,16.2-19.9,28.2-26.8c12.1-6.9,26.4-12,42.9-15.3
			c16.6-3.3,34.6-5,54.3-5c19.1,0,36.3,1.8,51.7,5.4c15.4,3.6,29,8.2,40.9,13.9c11.9,5.7,22.1,12.1,30.4,19.1c8.3,7,15,14,20.1,20.9
			l-25.4,20.7c-2.9-3.4-7.1-8-12.5-13.7c-5.4-5.7-12.7-11.3-21.9-16.7c-9.1-5.4-20.5-10.1-34.2-14.1c-13.7-4-30.3-6-49.9-6
			c-14.6,0-27.9,1-40,3c-12.1,2-22.5,5-31.2,9.1c-8.7,4.1-15.6,9.5-20.5,16.1c-4.9,6.6-7.4,14.4-7.4,23.5c0,10.9,3.6,19.3,10.7,25.4
			c7.2,6.1,16.7,10.8,28.6,14.1c11.9,3.3,25.4,5.6,40.5,7c15.1,1.3,30.5,2.8,46.1,4.4c15.6,1.6,31,3.8,46.1,6.6
			c15.1,2.8,28.6,7.1,40.5,12.9c11.9,5.8,21.5,13.8,28.6,23.9c7.2,10.1,10.7,23.2,10.7,39.4c0,12.2-3,23.7-8.9,34.4
			c-6,10.7-14.9,20.1-26.8,28.2c-11.9,8.1-27,14.4-45.1,19.1c-18.2,4.6-39.6,7-64.2,7c-23.6,0-43.7-2.2-60.4-6.6
			c-16.7-4.4-31-9.9-42.9-16.5c-11.9-6.6-21.9-13.8-29.8-21.7c-8-7.8-15-15.2-21.1-22.1L2265.4,300.4z"/>
	</g>
	<g>
		<path class="st0" d="M846.6,567.5c-5.3-3.2-9.4-7.6-12.4-13.1c-3-5.5-4.5-11.7-4.5-18.5c0-6.7,1.3-13,4-18.9
			c2.7-5.9,6.7-10.7,12.1-14.3c5.4-3.7,11.8-5.5,19.4-5.5c7.5,0,14.4,2.1,20.7,6.2l-0.5-5.5l5.5,0l0,23.8l-3.7,0
			c-0.7-6.4-2.9-11.3-6.7-14.9c-3.8-3.6-8.7-5.4-14.6-5.4c-4.9,0-9.3,1.4-13.3,4.1c-4,2.7-7.2,6.5-9.5,11.5s-3.5,10.8-3.5,17.3
			c0,6.3,1.2,11.9,3.7,16.9c2.5,5,5.8,8.8,10,11.6c4.2,2.8,8.8,4.2,13.8,4.1c4.6,0,9-1,13.2-3.1c4.2-2.1,7.7-5,10.5-8.7l2.7,2.2
			c-4,5.5-8.5,9.4-13.6,11.6c-5.1,2.2-10.3,3.3-15.4,3.3C857.9,572.4,851.9,570.8,846.6,567.5z"/>
		<path class="st0" d="M960,567.3c1.7,0,3.1-0.4,4.1-1.2c1-0.8,1.9-1.8,2.5-3.1c0.6-1.3,1.4-3.2,2.3-5.7l1-2.9l21.1-57.6l2.5,0
			l22.9,58.4c0.8,1.8,1.4,3.8,2,6c0.5,2.2,0.8,3.9,0.7,5.3l7-0.4l0,4.5l-23.5,0l0-3.4c4-0.1,6.1-1.7,6.1-4.9c0-1.3-0.3-2.9-1-4.8
			l-3.6-9.6l-26.7,0.6c-1,2.8-2.2,6.5-3.6,11c-0.7,2.3-1.5,4.6-2.6,7.1l8-0.4l0,4.5l-19.2,0L960,567.3z M1002.5,544.1l-7.3-19.6
			l-4.6-12.6h-0.2l-4.3,11.6l-5.5,15.6l-1.7,5L1002.5,544.1z"/>
		<path class="st0" d="M1095.4,567.2c2.4-0.1,4.1-0.6,5.1-1.6c1-1,1.6-2.2,1.7-3.6c0.1-1.4,0.2-3.8,0.2-7.3l0-44.3
			c0-2.9,0.1-5.3,0.3-7.4l-7.4,0.4l0-4.5c9.6-0.1,17.2-0.2,22.9-0.2c10.2,0,17.9,1.8,23.1,5.3c5.2,3.6,7.9,8.8,7.9,15.7
			c0,4-1,7.8-3.1,11.4c-2.1,3.6-5.7,6.6-10.8,9c-5.1,2.4-11.8,3.6-20.3,3.6c-1.6,0-2.8,0-3.7-0.1l0,14.9c0,3.6-0.1,6.3-0.3,8.1
			l9.4-0.5l0,4.6l-25.1,0L1095.4,567.2z M1128.7,537.3c3.2-1.5,5.8-3.8,7.7-6.7c1.9-2.9,2.8-6.3,2.8-10.2c0-6.2-1.9-10.7-5.6-13.5
			s-9-4.3-15.6-4.3c-2.3,0-4,0.5-4.9,1.4c-0.9,1-1.5,2.1-1.6,3.4c-0.1,1.3-0.2,3.8-0.2,7.3l0,24.5c1.7,0.2,3.9,0.3,6.7,0.3
			C1121.9,539.6,1125.5,538.9,1128.7,537.3z"/>
		<path class="st0" d="M1221.9,567.2c2.4-0.1,4.1-0.6,5.1-1.6c1-1,1.6-2.2,1.7-3.6c0.1-1.4,0.2-3.8,0.2-7.3l0-44.3
			c0-2.9,0.1-5.3,0.3-7.4l-7.4,0.4l0-4.5l23.1,0l0,3.4c-2.4,0.1-4.1,0.6-5.1,1.6c-1,1-1.6,2.2-1.7,3.6c-0.1,1.4-0.2,3.8-0.2,7.3
			l0,43.6c0,3.6-0.1,6.3-0.3,8.1l7.4-0.4l0,4.5l-23.1,0L1221.9,567.2z"/>
		<path class="st0" d="M1336.9,567.1c2.9-0.1,4.8-1,5.7-2.5c0.9-1.5,1.3-3.8,1.3-7l0-3.2l0.1-52l-10.6,0.1c-4.2,0-7.3,1.4-9.1,4.3
			c-1.8,2.8-2.7,7.3-2.7,13.5l-3.8,0l0.6-21.6l59.8,0l0.6,21.6l-3.9,0c-0.1-4.3-0.5-7.7-1.3-10.3c-0.8-2.6-2.1-4.5-4-5.7
			c-1.9-1.3-4.6-1.9-8.1-1.9l-8.7,0l-0.1,55.9c0,3.6-0.1,6.3-0.3,8.1l8.5-0.4l0,4.5l-24.1,0L1336.9,567.1z"/>
		<path class="st0" d="M1443.1,567.1c1.7,0,3.1-0.4,4.1-1.2s1.9-1.8,2.5-3.1c0.6-1.3,1.4-3.2,2.3-5.7l1-2.9l21.1-57.5l2.5,0
			l22.9,58.4c0.8,1.8,1.4,3.8,2,6c0.5,2.2,0.8,3.9,0.7,5.3l7-0.4l0,4.5l-23.5,0l0-3.4c4-0.1,6.1-1.7,6.1-4.9c0-1.3-0.3-2.9-1-4.8
			l-3.6-9.6l-26.7,0.6c-1,2.8-2.2,6.5-3.6,11c-0.7,2.3-1.5,4.6-2.6,7.1l8-0.4l0,4.5l-19.2,0L1443.1,567.1z M1485.7,543.9l-7.3-19.6
			l-4.6-12.6h-0.2l-4.3,11.6l-5.5,15.6l-1.7,5L1485.7,543.9z"/>
		<path class="st0" d="M1578.5,567c2.4-0.1,4.1-0.6,5.1-1.6c1-1,1.6-2.2,1.7-3.6c0.1-1.4,0.2-3.8,0.2-7.3l0-44.3
			c0-2.9,0.1-5.3,0.3-7.4l-7.4,0.4l0-4.5l23.1,0l0,3.4c-2.4,0.1-4.1,0.6-5.1,1.6c-1,1-1.6,2.2-1.7,3.6c-0.1,1.4-0.2,3.8-0.2,7.3
			l0,44c0,3.6-0.1,6.2-0.3,8l19.2-0.3c4.4-0.1,7.7-1.5,9.8-4.2c2.2-2.7,3.3-7,3.3-13h3.5l-0.6,21.2l-50.9,0L1578.5,567z"/>
		<path class="st0" d="M1816.7,567.6c-5.3-2.9-9.4-7.1-12.3-12.5c-2.9-5.4-4.4-11.8-4.4-19.2c0-6.7,1.3-13,4-19
			c2.7-6,6.7-10.8,12.1-14.5c5.4-3.7,11.9-5.6,19.5-5.6c3.7,0,7.4,0.5,11.2,1.5c3.8,1,7.1,2.4,10,4.1l-0.4-4.9l5.6,0l0,23.5l-3.7,0
			c-0.5-6.3-2.8-11.2-6.8-14.8c-4.1-3.6-9.1-5.3-15.2-5.3c-4.9,0-9.3,1.4-13.3,4.2c-4,2.8-7.2,6.7-9.5,11.6
			c-2.4,5-3.5,10.6-3.5,16.8c0,6.4,1.2,12.2,3.5,17.2c2.3,5.1,5.6,9,9.7,11.9c4.2,2.9,8.9,4.3,14.3,4.3c2.9,0,6-0.4,9.1-1.3
			c3.1-0.9,5.9-2.1,8.5-3.8l0-22.5l-7.2,0.4l0-4.5l23.2,0l0,3.4c-3.3,0-5.3,1.3-6.2,3.7c-0.8,2.5-1.2,5.3-1.2,8.5l0,15.7h-2.8
			c-2.9,0-6.6,0.9-11.1,2.7c-2.1,0.8-4.5,1.5-7.3,2c-2.8,0.5-5.4,0.7-7.7,0.7C1828,571.9,1821.9,570.5,1816.7,567.6z"/>
		<path class="st0" d="M1943.7,566.9c2.4-0.1,4.1-0.6,5.1-1.6c1-1,1.6-2.2,1.7-3.6c0.1-1.4,0.2-3.8,0.2-7.3l0-44.3
			c0-2.9,0.1-5.3,0.3-7.4l-7.4,0.4l0-4.5c7.1-0.1,12.5-0.2,16.1-0.2c3.3,0,5.7,0,7.4,0.1c9.6,0.1,16.7,1.8,21.2,4.9
			c4.5,3.1,6.7,7.6,6.7,13.5c0.1,4.7-1.3,9-4.2,12.7c-2.9,3.8-7.9,6.4-15,7.8c1.2,0.9,2.2,1.9,3.2,3.2c1,1.2,2.3,3.1,3.9,5.7l7,11
			c1.5,2.4,2.8,4.2,3.7,5.5c1,1.3,2.2,2.3,3.6,3.1s3.1,1.2,5.2,1.2l0,3.4l-12.9,0c-1.8-1.6-3.4-3.2-4.7-4.9
			c-1.3-1.7-2.8-3.8-4.5-6.5l-6.9-11l-1.3-2.2c-1.1-1.8-2.1-3.3-2.9-4.5c-0.8-1.2-1.7-2.2-2.7-3.1c-0.6,0.1-1.6,0.1-2.9,0.1
			c-1.8,0-3.2,0-4.1-0.1l0,19.9c0,3.6-0.1,6.3-0.3,8.1l7.4-0.4l0,4.5l-23.1,0L1943.7,566.9z M1985.2,517.8c0-5.2-1.5-9.1-4.5-11.7
			c-3-2.6-7.6-3.9-13.8-3.9c-2.4,0-4.1,0.5-5.1,1.4c-1,1-1.6,2.1-1.7,3.5s-0.2,3.8-0.2,7.3l0,19.7c2.1,0.1,3.6,0.2,4.5,0.2
			C1978.2,534.3,1985.2,528.8,1985.2,517.8z"/>
		<path class="st0" d="M2088.2,566.4c-5.5-3.6-9.5-8.3-12.1-14c-2.6-5.7-3.9-11.7-3.9-18.1c0-6.1,1.3-12,4-17.7
			c2.7-5.7,6.7-10.5,12.1-14.2c5.4-3.7,11.9-5.6,19.5-5.6c7.9,0,14.5,1.9,20.1,5.6c5.5,3.7,9.6,8.5,12.4,14.2
			c2.7,5.7,4.1,11.7,4.1,17.7c0,6-1.3,11.9-4,17.7c-2.7,5.8-6.7,10.5-12.1,14.3c-5.4,3.7-11.9,5.6-19.5,5.6
			C2100.5,571.8,2093.6,570,2088.2,566.4z M2122.6,563c3.8-3,6.7-7,8.6-11.7c1.9-4.8,2.9-9.8,2.9-15.1c0-5.8-1.1-11.4-3.2-16.9
			c-2.1-5.4-5.2-9.9-9.2-13.3c-4-3.4-8.8-5.2-14.2-5.2c-5.3,0-9.9,1.5-13.7,4.6c-3.8,3-6.7,7-8.7,11.9c-1.9,4.9-2.9,9.9-2.9,15.2
			c0,5.4,1,10.8,3,16.3c2,5.4,5,9.9,9,13.5c4,3.6,8.9,5.4,14.7,5.4C2114.2,567.6,2118.8,566.1,2122.6,563z"/>
		<path class="st0" d="M2235.2,567.9c-4.2-2.6-7.2-6.5-9-11.8c-1.8-5.3-2.7-12.3-2.7-21l0-20.8c0-4.4,0.1-8.3,0.4-11.9l-7.4,0.3
			l0-4.4l23,0l0,3.4c-3,0-4.9,0.8-5.7,2.4c-0.8,1.6-1.2,3.5-1.2,5.7l0,25.8c0,6,0.5,11.1,1.6,15.4c1.1,4.3,3.1,7.9,6.3,10.7
			c3.1,2.8,7.6,4.2,13.4,4.1c7.1,0,12.4-2.5,15.8-7.3c3.4-4.9,5.2-11.5,5.4-20l0.3-28.8c0-2.9,0.1-5.3,0.3-7.4l-7.3,0.4l0-4.5
			l19.1,0l0,3.4c-2.5,0.1-4.2,0.6-5.2,1.6c-1,1-1.6,2.2-1.7,3.6c-0.1,1.4-0.2,3.8-0.2,7.3l-0.2,23.8c-0.1,9.9-2.3,18-6.6,24.3
			c-4.3,6.3-11.3,9.4-21,9.4C2245.1,571.8,2239.4,570.5,2235.2,567.9z"/>
		<path class="st0" d="M2361,566.7c2.4-0.1,4.1-0.6,5.1-1.6c1-1,1.6-2.2,1.7-3.6c0.1-1.4,0.2-3.8,0.2-7.3l0-44.3
			c0-2.9,0.1-5.3,0.3-7.4l-7.4,0.4l0-4.5c9.6-0.1,17.2-0.2,22.9-0.2c10.2,0,17.9,1.8,23.1,5.3c5.2,3.6,7.9,8.8,7.9,15.7
			c0,4-1,7.8-3.1,11.4c-2.1,3.6-5.7,6.6-10.8,9s-11.8,3.6-20.3,3.6c-1.6,0-2.8,0-3.7-0.1l0,14.9c0,3.6-0.1,6.3-0.3,8.1l9.4-0.5v4.6
			l-25.1,0V566.7z M2394.4,536.8c3.2-1.5,5.8-3.8,7.7-6.7c1.9-2.9,2.8-6.3,2.8-10.2c0-6.2-1.9-10.7-5.7-13.5
			c-3.8-2.9-9-4.3-15.6-4.3c-2.3,0-3.9,0.5-4.9,1.4c-0.9,1-1.5,2.1-1.6,3.4c-0.1,1.3-0.2,3.8-0.2,7.3l0,24.5
			c1.7,0.2,3.9,0.3,6.7,0.3C2387.6,539.1,2391.1,538.3,2394.4,536.8z"/>
	</g>
	<g>
		<path class="st0" d="M0,0v675.5h675.5V0H0z M33,645.8v-616h609.6v616H33z"/>
	</g>
	<g>
		<g>
			<rect x="330.2" y="140.4" class="st0" width="15.1" height="90.8"/>
		</g>
		<g>
			<rect x="330.2" y="445.4" class="st0" width="15.1" height="90.8"/>
		</g>
		<g>
			
				<rect x="400.2" y="222.9" transform="matrix(0.7071 -0.7071 0.7071 0.7071 -32.4221 382.5994)" class="st0" width="90.8" height="15.1"/>
		</g>
		<g>
			
				<rect x="184.5" y="438.6" transform="matrix(0.7071 -0.7071 0.7071 0.7071 -248.155 293.2399)" class="st0" width="90.8" height="15.1"/>
		</g>
		<g>
			<rect x="444.9" y="330.7" class="st0" width="90.8" height="15.1"/>
		</g>
		<g>
			<rect x="139.8" y="330.7" class="st0" width="90.8" height="15.1"/>
		</g>
		<g>
			
				<rect x="438.1" y="400.8" transform="matrix(0.7071 -0.7071 0.7071 0.7071 -184.9683 445.7861)" class="st0" width="15.1" height="90.8"/>
		</g>
		<g>
			
				<rect x="222.3" y="185" transform="matrix(0.7071 -0.7071 0.7071 0.7071 -95.6088 230.0531)" class="st0" width="15.1" height="90.8"/>
		</g>
	</g>
</g>
</svg>
